<?xml version="1.0" encoding="utf-8"?>
<!-- Svg Vector Icons : http://www.onlinewebfonts.com/icon -->
<!DOCTYPE svg PUBLIC "-//W3C//DTD SVG 1.1//EN" "http://www.w3.org/Graphics/SVG/1.1/DTD/svg11.dtd">
<svg version="1.1" xmlns="http://www.w3.org/2000/svg" xmlns:xlink="http://www.w3.org/1999/xlink" x="0px" y="0px" viewBox="0 0 256 256" enable-background="new 0 0 256 256" xml:space="preserve">
<metadata> Svg Vector Icons : http://www.onlinewebfonts.com/icon </metadata>
<g><g><g><path fill="#000000" d="M151.6,175.2V33.6c0-13.4-10.2-23.6-23.6-23.6c-13.4,0-23.6,10.2-23.6,23.6v141.6c-9.5,7.1-15.7,18.9-15.7,31.5c0,22,17.3,39.3,39.3,39.3c22,0,39.3-17.3,39.3-39.3C167.3,194.1,161.1,182.3,151.6,175.2z M128,238.1c-17.3,0-31.5-14.2-31.5-31.5c0-11.8,6.3-22,15.7-27.5V33.6c0-8.6,7.1-15.7,15.7-15.7s15.7,7.1,15.7,15.7v145.5c9.5,5.5,15.7,15.7,15.7,27.5C159.5,224,145.3,238.1,128,238.1z"/></g><g></g><g></g><g></g><g></g><g></g><g></g><g></g><g></g><g></g><g></g><g></g><g></g><g></g><g></g><g></g></g></g>
</svg>